<?xml version="1.0" encoding="UTF-8"?>
<svg version="1.1" xmlns="http://www.w3.org/2000/svg" width="748" height="258">
<path d="M0 0 C0.66 0 1.32 0 2 0 C2 0.66 2 1.32 2 2 C2.556875 2.226875 3.11375 2.45375 3.6875 2.6875 C6.79786276 4.45284102 8.72306352 6.21982165 11 9 C11.43948867 11.85601476 11.59019987 14.09053457 11.48828125 16.92578125 C11.47766914 18.04716743 11.47766914 18.04716743 11.46684265 19.19120789 C11.43897645 21.56601402 11.37626132 23.93841351 11.3125 26.3125 C11.28740668 27.92770018 11.26459531 29.54293754 11.24414062 31.15820312 C11.19343536 35.10712901 11.09559439 39.05088962 11 43 C18.92 43 26.84 43 35 43 C35 38.38 35 33.76 35 29 C36.32 28.34 37.64 27.68 39 27 C39 26.34 39 25.68 39 25 C43.47058824 21 43.47058824 21 46 21 C46 28.26 46 35.52 46 43 C52.93 43 59.86 43 67 43 C66.938125 40.751875 66.87625 38.50375 66.8125 36.1875 C66.62903065 29.52144705 66.62903065 29.52144705 68.38671875 27.05078125 C70 26 70 26 72 26 C72 25.34 72 24.68 72 24 C73.65 23.01 75.3 22.02 77 21 C77 28.26 77 35.52 77 43 C80.3 43 83.6 43 87 43 C87 38.38 87 33.76 87 29 C88.32 28.34 89.64 27.68 91 27 C91 26.34 91 25.68 91 25 C91.66 25 92.32 25 93 25 C93 24.34 93 23.68 93 23 C94.65 22.34 96.3 21.68 98 21 C98 28.26 98 35.52 98 43 C100.97 43 103.94 43 107 43 C106.94779297 41.53626953 106.94779297 41.53626953 106.89453125 40.04296875 C106.86746094 38.77066406 106.84039062 37.49835938 106.8125 36.1875 C106.76029297 34.29064453 106.76029297 34.29064453 106.70703125 32.35546875 C107 29 107 29 108.38671875 27.05078125 C110 26 110 26 112 26 C112 25.34 112 24.68 112 24 C112.66 24 113.32 24 114 24 C114 23.34 114 22.68 114 22 C114.99 21.67 115.98 21.34 117 21 C117 28.26 117 35.52 117 43 C122.94 43 128.88 43 135 43 C134.89558594 40.56625 134.79117188 38.1325 134.68359375 35.625 C134.6132345 33.24538713 134.55868878 30.86589372 134.50561523 28.48583984 C134.46058289 26.84240149 134.39933043 25.19931918 134.32104492 23.55712891 C133.68830436 9.93459688 133.68830436 9.93459688 136.97314453 5.08984375 C142.5735436 0 142.5735436 0 146 0 C146 18.15 146 36.3 146 55 C97.82 55 49.64 55 0 55 C0 36.85 0 18.7 0 0 Z " fill="#00A7C1" transform="translate(109,30)"/>
<path d="M0 0 C6.77827918 6.11828884 7.16483713 11.81320841 8 21 C34.73 21 61.46 21 89 21 C89 16.38 89 11.76 89 7 C89.66 7 90.32 7 91 7 C91 6.34 91 5.68 91 5 C92.4609375 3.4921875 92.4609375 3.4921875 94.375 1.875 C95.00148438 1.33617187 95.62796875 0.79734375 96.2734375 0.2421875 C98 -1 98 -1 100 -1 C100 10.22 100 21.44 100 33 C54.46 33.495 54.46 33.495 8 34 C7.01 36.97 6.02 39.94 5 43 C1.2487027 47.56238861 -3.36608826 51.12202942 -9 53 C-19.47648959 53.6922204 -27.13614476 53.4115227 -35.3125 46.625 C-40.00769036 42.25202859 -42.70213731 38.13544248 -43.16796875 31.66796875 C-43.24978449 21.27736915 -40.21053126 14.11729904 -33.49609375 6.234375 C-32 5 -32 5 -29 5 C-29.53607758 9.55665941 -31.48897302 12.23345952 -34 16 C-35.74747041 21.53365631 -35.84224581 27.10494693 -33.5 32.375 C-33.005 33.24125 -32.51 34.1075 -32 35 C-32 35.66 -32 36.32 -32 37 C-23.68128479 40.13279275 -16.89116162 40.92152778 -8.5 37.625 C-5.77181775 36.08599225 -5.77181775 36.08599225 -4 33 C-5.18078125 33.04640625 -6.3615625 33.0928125 -7.578125 33.140625 C-9.13539134 33.17814949 -10.69268508 33.21454893 -12.25 33.25 C-13.41595703 33.30027344 -13.41595703 33.30027344 -14.60546875 33.3515625 C-20.37908904 33.45025686 -20.37908904 33.45025686 -23.515625 31.17578125 C-25.76796793 27.87432069 -25.5032754 25.96329375 -25 22 C-22.66767168 12.49576209 -17.87894371 4.58453008 -9.9375 -1.25 C-5.87730704 -2.28664501 -3.80340173 -1.72881897 0 0 Z M-12.5625 13.25 C-15.2561815 16.25119414 -15.2561815 16.25119414 -16 20 C-14.91447634 21.31262571 -14.91447634 21.31262571 -12.27734375 21.09765625 C-11.17519531 21.08605469 -10.07304688 21.07445312 -8.9375 21.0625 C-7.83277344 21.05347656 -6.72804688 21.04445313 -5.58984375 21.03515625 C-4.73519531 21.02355469 -3.88054688 21.01195312 -3 21 C-4.23290969 15.23518502 -4.23290969 15.23518502 -8 11 C-10.31787296 10.78006628 -10.31787296 10.78006628 -12.5625 13.25 Z " fill="#00A7C1" transform="translate(543,52)"/>
<path d="M0 0 C0.99 0 1.98 0 3 0 C3 0.66 3 1.32 3 2 C3.66 2 4.32 2 5 2 C5 2.66 5 3.32 5 4 C5.598125 4.268125 6.19625 4.53625 6.8125 4.8125 C9.18919987 6.1027085 10.41108963 6.80461386 12 9 C12.26154123 11.65834628 12.34939122 14.07685104 12.29296875 16.73046875 C12.28872391 17.48088943 12.28447906 18.23131012 12.28010559 19.00447083 C12.2633245 21.39918026 12.2256749 23.79304534 12.1875 26.1875 C12.17245235 27.8118368 12.15876409 29.4361868 12.14648438 31.06054688 C12.1159754 35.04095086 12.05725767 39.01953139 12 43 C20.58 43 29.16 43 38 43 C37.855625 40.834375 37.71125 38.66875 37.5625 36.4375 C37.53556295 29.78404964 37.53556295 29.78404964 39.453125 26.546875 C42.19450572 23.80549428 44.30140629 22.23286457 48 21 C48 28.26 48 35.52 48 43 C63.18 43 78.36 43 94 43 C93.01 41.02 92.02 39.04 91 37 C91 36.01 91 35.02 91 34 C87.33237392 31.65271931 84.28301385 31.5569296 80 32 C76.78170896 33.92293518 76.78170896 33.92293518 74 36 C73.01 36 72.02 36 71 36 C71.33519474 30.63688421 74.54134253 26.87175239 78 23 C82.01295097 19.4764333 85.74537463 18.84905924 91 19 C93.75 20.125 93.75 20.125 96 22 C96.804375 22.639375 97.60875 23.27875 98.4375 23.9375 C102.81628116 29.17067748 105.84439114 35.53317341 108 42 C110.31 42.33 112.62 42.66 115 43 C114.38379922 47.31340543 113.40620186 50.78139441 112 55 C75.04 55 38.08 55 0 55 C0 36.85 0 18.7 0 0 Z " fill="#FF9900" transform="translate(335,30)"/>
<path d="M0 0 C5.52705805 3.2801888 9.05387915 7.90046973 11 14 C11.46093374 18.34939638 11.38006731 22.63273977 11.25 27 C11.23195313 28.15628906 11.21390625 29.31257813 11.1953125 30.50390625 C11.1484876 33.33681275 11.08292012 36.16795884 11 39 C8.51644959 40.24177521 6.86892378 40.12036681 4.09130859 40.11352539 C3.07040131 40.11344986 2.04949402 40.11337433 0.99765015 40.11329651 C-0.66021011 40.10555458 -0.66021011 40.10555458 -2.3515625 40.09765625 C-3.4807309 40.0962413 -4.60989929 40.09482635 -5.77328491 40.09336853 C-9.39054988 40.08775744 -13.00775364 40.07520303 -16.625 40.0625 C-19.07291577 40.05748643 -21.52083252 40.05292328 -23.96875 40.04882812 C-29.97918766 40.0377844 -35.98958946 40.02103544 -42 40 C-42.13055283 40.69065048 -42.26110565 41.38130096 -42.39561462 42.09288025 C-42.57048904 42.99671951 -42.74536346 43.90055878 -42.92553711 44.83178711 C-43.18324135 46.17713783 -43.18324135 46.17713783 -43.44615173 47.54966736 C-44.45383296 52.00784543 -46.50214889 55.09386246 -50 58 C-54.14313686 59.80618586 -57.49013548 59.54486415 -61.6953125 58.02734375 C-65.56530316 56.18261059 -69.28010424 54.40425663 -72 51 C-72 50.01 -72 49.02 -72 48 C-71.18015625 48.10699219 -70.3603125 48.21398437 -69.515625 48.32421875 C-68.43796875 48.44410156 -67.3603125 48.56398437 -66.25 48.6875 C-65.18265625 48.81511719 -64.1153125 48.94273438 -63.015625 49.07421875 C-60.00574425 49.22412685 -60.00574425 49.22412685 -57.671875 47.76953125 C-54.08217115 43.97014844 -54.73365808 38.84979268 -54.7734375 33.890625 C-55.22692134 28.10479667 -57.37008968 23.11117354 -60 18 C-58.71632558 16.16106176 -57.42283239 14.32897375 -56.125 12.5 C-55.04605469 10.96859375 -55.04605469 10.96859375 -53.9453125 9.40625 C-53.30335938 8.6121875 -52.66140625 7.818125 -52 7 C-51.34 7 -50.68 7 -50 7 C-48.84120336 9.18144224 -47.69812622 11.36903017 -46.5625 13.5625 C-46.23701172 14.17158203 -45.91152344 14.78066406 -45.57617188 15.40820312 C-45.26357422 16.01728516 -44.95097656 16.62636719 -44.62890625 17.25390625 C-44.34088135 17.80377197 -44.05285645 18.3536377 -43.75610352 18.92016602 C-43 21 -43 21 -42 28 C-32.76 27.67 -23.52 27.34 -14 27 C-15.65 25.35 -17.3 23.7 -19 22 C-19.24796173 15.67697586 -15.94990463 10.4099727 -13 5 C-12.34 5 -11.68 5 -11 5 C-11 4.34 -11 3.68 -11 3 C-7.31914699 0.18523005 -4.59007361 -0.82621325 0 0 Z M-8.1875 12.9375 C-8.785625 13.288125 -9.38375 13.63875 -10 14 C-10 15.65 -10 17.3 -10 19 C-8.54462432 19.83848804 -7.08559627 20.67063934 -5.625 21.5 C-4.81289063 21.9640625 -4.00078125 22.428125 -3.1640625 22.90625 C-1.10663126 24.15035859 -1.10663126 24.15035859 1 24 C0.49289581 19.63890395 -0.36341651 16.54924701 -3 13 C-5.89186786 11.66695302 -5.89186786 11.66695302 -8.1875 12.9375 Z " fill="#00A7C1" transform="translate(715,45)"/>
<path d="M0 0 C0 11.22 0 22.44 0 34 C-12.21 34 -24.42 34 -37 34 C-37 37.3 -37 40.6 -37 44 C-38.0234375 46.7265625 -38.0234375 46.7265625 -39.375 48.625 C-39.81585938 49.27726562 -40.25671875 49.92953125 -40.7109375 50.6015625 C-41.13632812 51.06304687 -41.56171875 51.52453125 -42 52 C-42.66 52 -43.32 52 -44 52 C-44 52.66 -44 53.32 -44 54 C-51.77427279 57.77752083 -58.99831199 59.74002428 -67.51953125 57.26953125 C-74.87496874 54.28100358 -79.87944985 49.37330337 -83 42 C-83.51625179 39.14136219 -83.51783904 36.39738847 -83.4375 33.5 C-83.44458984 32.77941406 -83.45167969 32.05882812 -83.45898438 31.31640625 C-83.38171247 24.7423506 -81.55505233 18.95114384 -77 14 C-76.34 14 -75.68 14 -75 14 C-75 13.34 -75 12.68 -75 12 C-73.35 11.34 -71.7 10.68 -70 10 C-69.67 10.66 -69.34 11.32 -69 12 C-69.9609375 13.83984375 -69.9609375 13.83984375 -71.375 15.9375 C-75.17409272 21.6149151 -75.40867922 26.29981167 -75 33 C-73.89504088 37.52028732 -71.46734108 39.95550539 -68 43 C-62.30413981 44.89862006 -57.09215355 44.26052275 -51.6015625 42.06640625 C-49.63255113 40.99739626 -49.63255113 40.99739626 -49 37.8125 C-49 36.884375 -49 35.95625 -49 35 C-52.3 34.67 -55.6 34.34 -59 34 C-57.68 30.04 -56.36 26.08 -55 22 C-40.81 22 -26.62 22 -12 22 C-12 17.71 -12 13.42 -12 9 C-11.01 8.01 -10.02 7.02 -9 6 C-8.34 6 -7.68 6 -7 6 C-7 5.34 -7 4.68 -7 4 C-6.34 4 -5.68 4 -5 4 C-5 3.34 -5 2.68 -5 2 C-2 0 -2 0 0 0 Z " fill="#00A7C1" transform="translate(104,51)"/>
<path d="M0 0 C0 0.66 0 1.32 0 2 C0.66 2 1.32 2 2 2 C4.59227518 6.86051596 4.18689553 11.65271133 4 17 C3.01 17 2.02 17 1 17 C0.76925781 16.40832031 0.53851563 15.81664062 0.30078125 15.20703125 C-2.29480623 8.9181177 -4.6626662 4.43963419 -11.1875 1.625 C-17.35568627 0.61382192 -23.33830902 0.57427156 -28.8125 3.9375 C-35.02546963 9.10763076 -37.18517467 16.04908709 -37.9375 23.875 C-38.2738514 33.55561374 -37.6815999 42.2789433 -31.68359375 50.21875 C-28.25980659 53.84113271 -24.9991012 54.8627804 -20.09765625 55.19921875 C-14.92958361 55.28226565 -10.08771197 54.93740904 -5 54 C-5.05220703 52.04707031 -5.05220703 52.04707031 -5.10546875 50.0546875 C-5.13361901 48.32813796 -5.16091784 46.60157439 -5.1875 44.875 C-5.21263672 44.0190625 -5.23777344 43.163125 -5.26367188 42.28125 C-5.32339656 37.10511088 -5.00313606 33.42858773 -2 29 C2.44373654 26.48467743 5.91859829 25.62819012 11 26 C11 26.99 11 27.98 11 29 C10.0409375 29.433125 10.0409375 29.433125 9.0625 29.875 C6.84793921 30.82823451 6.84793921 30.82823451 6 33 C5.84733388 34.73868744 5.75067404 36.48247501 5.68359375 38.2265625 C5.62075195 39.7734375 5.62075195 39.7734375 5.55664062 41.3515625 C5.51732422 42.43179688 5.47800781 43.51203125 5.4375 44.625 C5.37272461 46.25695312 5.37272461 46.25695312 5.30664062 47.921875 C5.2003547 50.6144517 5.09831943 53.30712253 5 56 C3.58521865 56.64995297 2.16808513 57.29478722 0.75 57.9375 C-0.03890625 58.29714844 -0.8278125 58.65679687 -1.640625 59.02734375 C-9.71405525 62.35562874 -21.88974754 62.79262996 -30.0625 59.4375 C-39.57286698 54.20311197 -45.26325485 46.89543628 -48.4609375 36.58203125 C-50.42504325 27.17424937 -49.56499185 17.20819453 -44.74609375 8.81640625 C-40.57717413 2.80725508 -35.40763212 -1.61170543 -28.625 -4.375 C-18.53575238 -6.11452545 -8.98540909 -5.06869231 0 0 Z " fill="#00A7C1" transform="translate(352,165)"/>
<path d="M0 0 C2.08268593 -0.08126087 4.16628658 -0.13930839 6.25 -0.1875 C7.99023438 -0.23970703 7.99023438 -0.23970703 9.765625 -0.29296875 C13 0 13 0 15.375 0.96875 C17.97264595 4.21580744 17.67700936 7.64315476 17.75 11.6875 C17.77964844 12.48478516 17.80929688 13.28207031 17.83984375 14.10351562 C17.91044082 16.06846749 17.95749708 18.03423977 18 20 C18.71414062 19.51402344 19.42828125 19.02804688 20.1640625 18.52734375 C25.14548293 15.84451264 30.72538463 16.09872972 36.12890625 17.5859375 C40.60014549 19.69118621 42.37118122 22.72163066 44.19946289 27.04663086 C45.91623033 33.38018857 45.40233771 40.0529372 45.25 46.5625 C45.2298987 48.06312713 45.21165436 49.56378034 45.1953125 51.06445312 C45.15161687 54.71018483 45.08279202 58.35492199 45 62 C41.7 62 38.4 62 35 62 C34.970271 60.53191895 34.970271 60.53191895 34.93994141 59.03417969 C34.86375376 55.39606403 34.77505705 51.75834147 34.68261719 48.12060547 C34.64438171 46.54744235 34.60951934 44.97419342 34.578125 43.40087891 C34.53235578 41.13673277 34.47438239 38.87317453 34.4140625 36.609375 C34.40251129 35.90818542 34.39096008 35.20699585 34.37905884 34.48455811 C34.26994924 30.85822612 34.05077991 28.05159019 32 25 C29.30625333 22.9048637 27.95970063 23.00287853 24.5 23.25 C20.8047828 23.88937692 20.8047828 23.88937692 17 26 C17 37.88 17 49.76 17 62 C14.03 62 11.06 62 8 62 C7.98969254 61.34489441 7.97938507 60.68978882 7.96876526 60.01483154 C7.86065576 53.20168161 7.74606117 46.38866273 7.62768555 39.57568359 C7.58435101 37.03241719 7.54267487 34.48912198 7.50268555 31.94580078 C7.44494742 28.29190381 7.38126275 24.63815169 7.31640625 20.984375 C7.29969376 19.84570984 7.28298126 18.70704468 7.26576233 17.53387451 C7.24581711 16.47307678 7.22587189 15.41227905 7.20532227 14.31933594 C7.18977798 13.38667908 7.1742337 12.45402222 7.15821838 11.49310303 C7.00912778 9.1438297 6.85345884 7.19556801 6 5 C3.00384054 3.6954344 3.00384054 3.6954344 0 3 C0 2.01 0 1.02 0 0 Z " fill="#00A7C1" transform="translate(71,162)"/>
<path d="M0 0 C2.10388569 -0.05402274 4.20816714 -0.09280256 6.3125 -0.125 C8.07013672 -0.15980469 8.07013672 -0.15980469 9.86328125 -0.1953125 C13 0 13 0 16 2 C17.3433818 5.42844788 17.20457834 9.09198006 17.31640625 12.734375 C17.35830078 14.02988281 17.40019531 15.32539063 17.44335938 16.66015625 C17.48316671 18.02343476 17.52287906 19.38671606 17.5625 20.75 C17.60572274 22.12891875 17.64933821 23.50782526 17.69335938 24.88671875 C17.79943958 28.2577119 17.9014985 31.62877826 18 35 C18.69867187 34.0615625 19.39734375 33.123125 20.1171875 32.15625 C21.03612626 30.9372496 21.95541523 29.71851315 22.875 28.5 C23.33519531 27.87996094 23.79539062 27.25992188 24.26953125 26.62109375 C25.46562174 25.04364108 26.72856726 23.51738202 28 22 C28.66 22 29.32 22 30 22 C30 21.34 30 20.68 30 20 C33.06246747 18.21590198 35.22079273 17.77119979 38.75 17.875 C39.54921875 17.89304688 40.3484375 17.91109375 41.171875 17.9296875 C41.77515625 17.95289063 42.3784375 17.97609375 43 18 C43 18.99 43 19.98 43 21 C41.96875 21.33 40.9375 21.66 39.875 22 C35.64783277 23.75774702 33.72565219 26.60893982 31.26171875 30.35546875 C30.84535156 30.89816406 30.42898438 31.44085938 30 32 C29.34 32 28.68 32 28 32 C26.32269606 34.74384872 26.32269606 34.74384872 26.23828125 37.87109375 C27.17060176 40.47681006 28.50024131 42.17094752 30.25 44.3125 C32.50466387 47.09416864 34.5775498 49.85675318 36.5 52.875 C39.04747442 56.54711196 41.81835395 57.60611798 46 59 C45.67 60.32 45.34 61.64 45 63 C39.74687288 63.58128866 35.34407952 63.79448955 30.875 60.6875 C26.00211303 56.55894404 22.57648179 51.23539853 19 46 C18.505 45.505 18.505 45.505 18 45 C17.67 50.61 17.34 56.22 17 62 C14.03 62 11.06 62 8 62 C7.98969254 61.33014572 7.97938507 60.66029144 7.96876526 59.97013855 C7.86075664 53.01116054 7.74615395 46.0523135 7.62768555 39.09350586 C7.58431862 36.49490087 7.54264485 33.89626705 7.50268555 31.29760742 C7.44502577 27.56680608 7.38131871 23.83615006 7.31640625 20.10546875 C7.29969376 18.93976852 7.28298126 17.7740683 7.26576233 16.57304382 C7.24581711 15.49214981 7.22587189 14.4112558 7.20532227 13.29760742 C7.18977798 12.34496506 7.1742337 11.39232269 7.15821838 10.41081238 C7.09281922 7.85608802 7.09281922 7.85608802 6 5 C2.99152582 3.77479736 2.99152582 3.77479736 0 3 C0 2.01 0 1.02 0 0 Z " fill="#00A7C1" transform="translate(677,162)"/>
<path d="M0 0 C5.17917263 2.31213064 7.83484541 5.8410642 10 11 C10.33094454 13.85377394 10.47325065 16.28923061 10.390625 19.12109375 C10.38496521 19.86585464 10.37930542 20.61061554 10.37347412 21.37794495 C10.3512735 23.7318138 10.3011137 26.0840997 10.25 28.4375 C10.22991366 30.04359764 10.21166664 31.6497194 10.1953125 33.25585938 C10.15146309 37.1711729 10.08255471 41.0853191 10 45 C6.7 45 3.4 45 0 45 C-0.01458252 43.99098633 -0.02916504 42.98197266 -0.04418945 41.94238281 C-0.10224114 38.19235109 -0.17947292 34.44291554 -0.26245117 30.69335938 C-0.29566835 29.07171314 -0.32371035 27.44995219 -0.34643555 25.828125 C-0.38004155 23.49429523 -0.4323576 21.16151365 -0.48828125 18.828125 C-0.49467117 18.10506165 -0.5010611 17.38199829 -0.50764465 16.63702393 C-0.59754398 13.54682886 -0.83340882 11.30652039 -2.32104492 8.56933594 C-5.01463016 6.05161514 -7.39920337 6.0620827 -11 6 C-13.80327695 6.84965784 -13.80327695 6.84965784 -16 9 C-16.52598044 11.90759494 -16.72187431 14.25430175 -16.70703125 17.16796875 C-16.72215256 17.96278152 -16.73727386 18.7575943 -16.75285339 19.57649231 C-16.79582342 22.11378134 -16.8045767 24.64988296 -16.8125 27.1875 C-16.83563729 28.9082349 -16.86100103 30.62894141 -16.88867188 32.34960938 C-16.95161536 36.56651162 -16.98387798 40.78266928 -17 45 C-20.3 45 -23.6 45 -27 45 C-27.02505615 43.89487061 -27.0501123 42.78974121 -27.07592773 41.65112305 C-27.17006509 37.55285956 -27.27027041 33.45476306 -27.37231445 29.35668945 C-27.41563934 27.58264063 -27.45731619 25.80855077 -27.49731445 24.03442383 C-27.5550762 21.48506295 -27.61875362 18.9359082 -27.68359375 16.38671875 C-27.70030624 15.59287277 -27.71701874 14.79902679 -27.73423767 13.98112488 C-27.82117718 10.75316923 -27.97250366 8.08248901 -29 5 C-31.97 4.505 -31.97 4.505 -35 4 C-35 3.01 -35 2.02 -35 1 C-32.75026553 0.945862 -30.50015617 0.90714509 -28.25 0.875 C-26.99703125 0.85179687 -25.7440625 0.82859375 -24.453125 0.8046875 C-21 1 -21 1 -18.859375 2.1953125 C-17.93898438 2.59363281 -17.93898438 2.59363281 -17 3 C-11.02946062 -0.38232526 -6.88715675 -0.82234707 0 0 Z " fill="#00A7C1" transform="translate(487,179)"/>
<path d="M0 0 C4.23175618 3.57348299 5.66987471 6.74426643 6.15307617 12.26904297 C6.15260716 13.71851128 6.13601317 15.16804098 6.10546875 16.6171875 C6.10122391 17.38555939 6.09697906 18.15393127 6.09260559 18.94558716 C6.07591826 21.38075985 6.03828641 23.8150808 6 26.25 C5.98494023 27.90884215 5.97125409 29.56769737 5.95898438 31.2265625 C5.92604759 35.2763659 5.87433594 39.32553894 5.8125 43.375 C3.8325 43.375 1.8525 43.375 -0.1875 43.375 C-0.5175 42.385 -0.8475 41.395 -1.1875 40.375 C-2.095 41.035 -3.0025 41.695 -3.9375 42.375 C-9.07936235 45.30722293 -14.44062598 45.15721341 -20.1875 44.375 C-24.1696008 42.55860314 -25.69014134 41.13761662 -28.0625 37.5 C-29.59786995 33.23508349 -29.56672645 30.14472341 -28.625 25.75 C-25.90924849 21.2631062 -21.17351649 19.51525072 -16.3125 18.125 C-11.94498269 17.14873143 -7.64010974 17.18947459 -3.1875 17.375 C-3.49758884 15.77036551 -3.81066287 14.16630769 -4.125 12.5625 C-4.29902344 11.66917969 -4.47304687 10.77585938 -4.65234375 9.85546875 C-5.16491153 7.26102829 -5.16491153 7.26102829 -6.1875 4.375 C-7.79129341 4.32083812 -9.39561406 4.28213362 -11 4.25 C-11.89332031 4.22679687 -12.78664062 4.20359375 -13.70703125 4.1796875 C-16.44152714 4.19214173 -16.44152714 4.19214173 -19.1875 6.375 C-20.39200304 8.92683404 -20.39200304 8.92683404 -21.1875 11.375 C-23.1675 11.375 -25.1475 11.375 -27.1875 11.375 C-26.70012626 4.06439394 -26.70012626 4.06439394 -24.375 0.9375 C-18.25897747 -3.43108752 -6.54121864 -3.38290492 0 0 Z M-18.1875 27.1875 C-19.6073509 30.29342383 -19.14946291 32.14555309 -18.1875 35.375 C-16.43697496 38.04685401 -15.32639676 38.34027581 -12.1875 39.125 C-9.13826009 39.57743075 -9.13826009 39.57743075 -6.1875 38.375 C-6.1875 37.715 -6.1875 37.055 -6.1875 36.375 C-5.1975 36.045 -4.2075 35.715 -3.1875 35.375 C-3.1875 31.085 -3.1875 26.795 -3.1875 22.375 C-9.38375095 22.375 -13.52148326 22.95892233 -18.1875 27.1875 Z " fill="#00A7C1" transform="translate(243.1875,180.625)"/>
<path d="M0 0 C4.73674408 3.43413946 7.23168486 7.10508185 8.5 12.8125 C8.5 16.4425 8.5 20.0725 8.5 23.8125 C-0.41 23.8125 -9.32 23.8125 -18.5 23.8125 C-16.65765752 34.15098142 -16.65765752 34.15098142 -12.5 37.8125 C-9.30876226 39.40811887 -5.97254909 39.1924142 -2.5 38.8125 C1.08552881 37.17562815 2.29315055 36.12277417 4.5 32.8125 C5.49 33.1425 6.48 33.4725 7.5 33.8125 C7.02591957 38.07922384 4.61692878 40.0580048 1.5 42.8125 C-3.62050034 46.06074691 -9.67508494 45.36725382 -15.5 44.8125 C-20.93956522 43.30733134 -23.75903541 39.56649069 -26.5546875 34.91015625 C-29.57297681 28.21254733 -29.16077877 20.11639386 -27.75 13.0625 C-25.51982835 7.26405371 -23.57334141 2.41606956 -17.69140625 -0.53125 C-11.84893108 -2.28086823 -5.72070897 -1.94095483 0 0 Z M-14.75 5.375 C-17.78510201 9.60246351 -18.5 13.67609274 -18.5 18.8125 C-12.89 18.8125 -7.28 18.8125 -1.5 18.8125 C-1.20337807 11.70344184 -1.20337807 11.70344184 -3.5 5.8125 C-7.51222383 3.13768411 -10.6435074 2.52326903 -14.75 5.375 Z " fill="#00A7C1" transform="translate(418.5,180.1875)"/>
<path d="M0 0 C2.22808159 -0.10853983 4.45769932 -0.18583307 6.6875 -0.25 C7.92886719 -0.29640625 9.17023438 -0.3428125 10.44921875 -0.390625 C14.70846764 0.07793923 15.93946657 1.06830554 19 4 C20.57739258 6.84082031 20.57739258 6.84082031 21.89453125 10.078125 C22.37470703 11.23828125 22.85488281 12.3984375 23.34960938 13.59375 C23.83236328 14.8003125 24.31511719 16.006875 24.8125 17.25 C25.3183537 18.4849115 25.82550302 19.71929312 26.33398438 20.953125 C27.56882579 23.96378597 28.79022021 26.97920113 30 30 C33.42563075 20.36255882 36.81601194 10.72052825 40 1 C42.31 1 44.62 1 47 1 C43.21931169 12.69113417 39.2241146 24.25713081 34.78466797 35.71533203 C32.61124889 41.33882649 30.59688577 46.96972333 28.7890625 52.72265625 C28.0234905 54.93220316 27.09579895 56.93703938 26 59 C25.34 59 24.68 59 24 59 C23.67 59.99 23.34 60.98 23 62 C20.47524538 63.26237731 18.68799534 63.09856404 15.875 63.0625 C14.96492187 63.05347656 14.05484375 63.04445312 13.1171875 63.03515625 C12.41851562 63.02355469 11.71984375 63.01195312 11 63 C11 62.01 11 61.02 11 60 C11.60328125 59.81566406 12.2065625 59.63132813 12.828125 59.44140625 C17.44777273 57.76492119 20.43712035 56.28198364 22.75 51.8125 C24.67789901 46.34717162 23.24659426 43.11395798 21 38 C20.29144317 36.09172762 19.58358629 34.18316882 18.88696289 32.27050781 C16.43085449 25.55614803 13.78383539 18.93294712 10.98046875 12.35546875 C10.24904721 10.59830864 9.60187948 8.80563845 9 7 C6.0974856 4.96039529 3.49158202 3.64658926 0 3 C0 2.01 0 1.02 0 0 Z " fill="#00A7C1" transform="translate(141,179)"/>
<path d="M0 0 C1.20269531 -0.02578125 2.40539062 -0.0515625 3.64453125 -0.078125 C7.56150222 0.28463747 9.89572446 1.11635279 13.1875 3.25 C15.27077169 6.13086713 15.41537065 8.50239774 15.3125 12 C15.29445313 12.79921875 15.27640625 13.5984375 15.2578125 14.421875 C15.23460937 15.02515625 15.21140625 15.6284375 15.1875 16.25 C14.1975 16.25 13.2075 16.25 12.1875 16.25 C11.8471875 14.331875 11.8471875 14.331875 11.5 12.375 C10.67751474 8.98715141 10.67751474 8.98715141 8.0625 6.75 C4.33549209 6.10182471 0.93924468 5.52091601 -2.8125 6.25 C-7.39398613 9.53671831 -8.82591656 12.77894636 -9.8125 18.25 C-10.3653032 25.55405931 -10.08459893 32.01398031 -5.75 38.1875 C-2.24579274 40.64790084 -0.22864791 40.91462084 3.96484375 40.68359375 C7.35880398 40.02150309 9.58505565 38.4620777 12.1875 36.25 C12.6825 35.26 12.6825 35.26 13.1875 34.25 C14.1775 34.58 15.1675 34.91 16.1875 35.25 C14.53481193 40.2080642 12.41145454 43.13802273 7.6875 45.5 C5.1875 46.25 5.1875 46.25 1.1875 46.25 C1.1875 47.24 1.1875 48.23 1.1875 49.25 C1.950625 49.1675 2.71375 49.085 3.5 49 C6.1875 49.25 6.1875 49.25 8 50.875 C9.52790738 53.93081477 9.61006988 55.86944093 9.1875 59.25 C7.98828125 61.421875 7.98828125 61.421875 6.1875 63.25 C3.70703125 63.640625 3.70703125 63.640625 1 63.5 C0.09894531 63.46390625 -0.80210937 63.4278125 -1.73046875 63.390625 C-2.41753906 63.34421875 -3.10460937 63.2978125 -3.8125 63.25 C-3.8125 61.6 -3.8125 59.95 -3.8125 58.25 C-0.3475 57.755 -0.3475 57.755 3.1875 57.25 C3.1875 56.59 3.1875 55.93 3.1875 55.25 C-0.2775 54.755 -0.2775 54.755 -3.8125 54.25 C-3.8125 51.61 -3.8125 48.97 -3.8125 46.25 C-4.658125 46.20875 -5.50375 46.1675 -6.375 46.125 C-11.91227163 44.71551267 -15.36139143 41.23318171 -18.6875 36.6875 C-21.85088199 29.83350569 -21.49105493 21.6993209 -20.0625 14.4375 C-17.81288435 8.70098009 -14.8865938 4.76283417 -9.8125 1.25 C-6.38258462 0.10669487 -3.6138584 0.04618349 0 0 Z " fill="#00A7C1" transform="translate(548.8125,178.75)"/>
<path d="M0 0 C2.08218362 -0.10832169 4.16599129 -0.18573541 6.25 -0.25 C7.99023438 -0.31960937 7.99023438 -0.31960937 9.765625 -0.390625 C13 0 13 0 15.359375 1.765625 C18.09242398 5.48777742 18.12411264 8.87978885 18.11352539 13.41113281 C18.11344986 14.49195129 18.11337433 15.57276978 18.11329651 16.68634033 C18.10813522 17.84687927 18.10297394 19.00741821 18.09765625 20.203125 C18.0962413 21.39605164 18.09482635 22.58897827 18.09336853 23.8180542 C18.08777038 27.62872829 18.07521819 31.43934366 18.0625 35.25 C18.05748476 37.83333248 18.0529219 40.41666589 18.04882812 43 C18.03780155 49.33335596 18.02053814 55.66666803 18 62 C14.7 62 11.4 62 8 62 C7.505 33.29 7.505 33.29 7 4 C4.69 3.67 2.38 3.34 0 3 C0 2.01 0 1.02 0 0 Z " fill="#00A7C1" transform="translate(588,162)"/>
<path d="M0 0 C0.99 0.33 1.98 0.66 3 1 C3.02526648 8.52969652 3.04283141 16.0593822 3.05493164 23.58911133 C3.0599737 26.15291757 3.06680714 28.71672091 3.07543945 31.28051758 C3.08751064 34.95655021 3.09322942 38.63254498 3.09765625 42.30859375 C3.10281754 43.46274277 3.10797882 44.61689178 3.11329651 45.80601501 C3.11337204 46.86703934 3.11344757 47.92806366 3.11352539 49.02124023 C3.115746 49.96055893 3.11796661 50.89987762 3.12025452 51.86766052 C3 54 3 54 2 55 C0.14712498 55.07226502 -1.70833878 55.0838122 -3.5625 55.0625 C-4.57441406 55.05347656 -5.58632813 55.04445312 -6.62890625 55.03515625 C-7.41136719 55.02355469 -8.19382812 55.01195312 -9 55 C-9.17781506 48.41675298 -9.30020826 41.83412708 -9.38452148 35.24902344 C-9.41967552 33.01018127 -9.46740932 30.77149926 -9.52807617 28.53320312 C-9.61321526 25.31079594 -9.65273927 22.090516 -9.68359375 18.8671875 C-9.71972275 17.87008759 -9.75585175 16.87298767 -9.79307556 15.84567261 C-9.79690022 9.04206982 -9.79690022 9.04206982 -7.46536255 5.9932251 C-2.96914061 2 -2.96914061 2 0 2 C0 1.34 0 0.68 0 0 Z " fill="#FF9900" transform="translate(466,30)"/>
<path d="M0 0 C2.97 0 5.94 0 9 0 C9.01213028 0.95720444 9.01213028 0.95720444 9.02450562 1.93374634 C9.11066975 8.58510007 9.21017872 15.23615984 9.31738281 21.88720703 C9.35562791 24.36827654 9.39048853 26.84940065 9.421875 29.33056641 C9.46762202 32.90026339 9.52560169 36.46958594 9.5859375 40.0390625 C9.59748871 41.14553131 9.60903992 42.25200012 9.62094116 43.39199829 C9.72090685 48.62745395 9.88591028 53.11163113 12 58 C13.98 58.33 15.96 58.66 18 59 C18 59.99 18 60.98 18 62 C15.72975032 62.08097324 13.45867925 62.13917704 11.1875 62.1875 C9.29064453 62.23970703 9.29064453 62.23970703 7.35546875 62.29296875 C4 62 4 62 2.11328125 60.67578125 C-0.10260157 57.34029448 -0.12224386 54.39851969 -0.11352539 50.51879883 C-0.11344986 49.39786331 -0.11337433 48.2769278 -0.11329651 47.12202454 C-0.10813522 45.91257675 -0.10297394 44.70312897 -0.09765625 43.45703125 C-0.0962413 42.21829758 -0.09482635 40.9795639 -0.09336853 39.70329285 C-0.08871602 36.41368463 -0.0797339 33.1241254 -0.06866455 29.83453369 C-0.05842629 26.47628377 -0.05386574 23.11802667 -0.04882812 19.75976562 C-0.03779145 13.17315788 -0.02104767 6.58658295 0 0 Z " fill="#00A7C1" transform="translate(32,162)"/>
<path d="M0 0 C3.84046467 0.02762924 6.13077328 0.91057996 9.25 3.25 C8.91333088 6.28002206 8.3594656 8.09001182 6.625 10.625 C4.25 12.25 4.25 12.25 0.75 11.9375 C-0.405 11.710625 -1.56 11.48375 -2.75 11.25 C-5.07158065 11.59659295 -5.07158065 11.59659295 -6.75 12.25 C-6.75 13.57 -6.75 14.89 -6.75 16.25 C1.18590615 17.72957572 7.51758147 16.36536025 15.25 14.25 C14.60761043 16.59013344 13.93679942 18.92251306 13.25 21.25 C13.0025 22.1265625 12.755 23.003125 12.5 23.90625 C11.25 26.25 11.25 26.25 8.9921875 27.11328125 C8.04601562 27.26152344 7.09984375 27.40976563 6.125 27.5625 C-0.38872265 28.89844554 -5.69528479 31.50911881 -11.49267578 34.64575195 C-13.21851367 35.56558999 -14.9818206 36.41444028 -16.75 37.25 C-17.41 36.92 -18.07 36.59 -18.75 36.25 C-17.77223933 34.76990357 -16.7927506 33.29094856 -15.8125 31.8125 C-14.99458984 30.57693359 -14.99458984 30.57693359 -14.16015625 29.31640625 C-12.75 27.25 -12.75 27.25 -11.75 26.25 C-12.430625 25.734375 -13.11125 25.21875 -13.8125 24.6875 C-15.75 22.25 -15.75 22.25 -15.8125 19.0625 C-13.80351008 11.85377145 -10.32638009 6.20678231 -4.75 1.25 C-3.75 0.25 -3.75 0.25 0 0 Z " fill="#FF9900" transform="translate(316.75,53.75)"/>
<path d="M0 0 C0 18.15 0 36.3 0 55 C-3.63 55 -7.26 55 -11 55 C-11.22355678 48.61391911 -11.38629069 42.23014491 -11.49438477 35.84106445 C-11.53946854 33.67106424 -11.60075681 31.50133475 -11.67895508 29.33227539 C-12.3469166 10.31938377 -12.3469166 10.31938377 -9.02685547 5.51904297 C-3.62894376 0 -3.62894376 0 0 0 Z " fill="#00A7C1" transform="translate(273,30)"/>
<path d="M0 0 C2.26979665 -0.10794277 4.54105196 -0.18556176 6.8125 -0.25 C8.07707031 -0.29640625 9.34164062 -0.3428125 10.64453125 -0.390625 C14 0 14 0 15.69140625 1.453125 C17.66690259 5.29797161 17.37017158 8.8810371 17.29296875 13.140625 C17.28872391 14.02280701 17.28447906 14.90498901 17.28010559 15.81390381 C17.26333838 18.62624883 17.22568998 21.43787226 17.1875 24.25 C17.17245062 26.1588438 17.15876266 28.06769886 17.14648438 29.9765625 C17.11344127 34.65131889 17.06167255 39.32553718 17 44 C13.7 44 10.4 44 7 44 C6.67 31.13 6.34 18.26 6 5 C4.02 4.34 2.04 3.68 0 3 C0 2.01 0 1.02 0 0 Z " fill="#00A7C1" transform="translate(634,180)"/>
<path d="M0 0 C2.56393577 0.45709511 4.08115316 1.51474691 5.90625 3.33984375 C5.57625 4.65984375 5.24625 5.97984375 4.90625 7.33984375 C4.24625 7.33984375 3.58625 7.33984375 2.90625 7.33984375 C2.90625 7.99984375 2.90625 8.65984375 2.90625 9.33984375 C-0.18273768 10.25509936 -2.88734799 10.33984375 -6.09375 10.33984375 C-7.08375 10.66984375 -8.07375 10.99984375 -9.09375 11.33984375 C-8.76375 11.99984375 -8.43375 12.65984375 -8.09375 13.33984375 C-1.89983478 15.054231 3.84997383 14.07225372 9.90625 12.33984375 C10.30595385 16.86982076 9.73172329 19.72951677 6.90625 23.33984375 C4.03219571 24.30689975 1.16771997 24.88772387 -1.8046875 25.484375 C-6.29995552 26.65357179 -9.94548063 28.76891808 -13.9140625 31.1328125 C-16.09375 32.33984375 -16.09375 32.33984375 -18.09375 32.33984375 C-16.93789715 28.42772642 -15.73840038 25.46533965 -13.09375 22.33984375 C-14.08375 21.67984375 -15.07375 21.01984375 -16.09375 20.33984375 C-17.32189224 14.8814338 -14.558698 11.18453218 -11.796875 6.70703125 C-8.19110243 1.69533819 -6.1629881 -0.2874528 0 0 Z " fill="#FF9900" transform="translate(468.09375,88.66015625)"/>
<path d="M0 0 C1.15224028 0.92961422 2.29659176 1.8690125 3.4375 2.8125 C4.39462891 3.59560547 4.39462891 3.59560547 5.37109375 4.39453125 C7 6 7 6 8 9 C10.8836688 6.64063462 13.6509354 4.35876084 16.25 1.6875 C18 0 18 0 20 0 C21.76171875 1.609375 21.76171875 1.609375 23.6875 3.75 C24.33074219 4.44609375 24.97398437 5.1421875 25.63671875 5.859375 C27 8 27 8 26.9296875 10.03125 C25.78577428 12.45365447 24.38117257 13.91234594 22.4375 15.75 C21.47650391 16.67039062 21.47650391 16.67039062 20.49609375 17.609375 C20.00238281 18.06828125 19.50867188 18.5271875 19 19 C14.71640327 17.1144852 12.84896408 14.64034299 10 11 C9.52949219 11.40992188 9.05898437 11.81984375 8.57421875 12.2421875 C7.95160156 12.78101563 7.32898438 13.31984375 6.6875 13.875 C6.07261719 14.40867187 5.45773438 14.94234375 4.82421875 15.4921875 C3 17 3 17 0 19 C-1.36877116 17.76600937 -2.71969166 16.51219377 -4.0625 15.25 C-4.81660156 14.55390625 -5.57070312 13.8578125 -6.34765625 13.140625 C-8 11 -8 11 -7.96875 8.96875 C-6.78900424 6.57120216 -5.37697268 5.08368326 -3.4375 3.25 C-2.79683594 2.63640625 -2.15617188 2.0228125 -1.49609375 1.390625 C-1.00238281 0.93171875 -0.50867188 0.4728125 0 0 Z " fill="#00A7C1" transform="translate(194,27)"/>
<path d="M0 0 C2.86697492 1.28519565 4.97607712 2.57129254 7 5 C7 5.66 7 6.32 7 7 C12.40049736 6.68232368 14.52337065 3.80003673 18 0 C21.36179774 1.44077046 23.59156268 3.24750021 26 6 C26 6.66 26 7.32 26 8 C26.66 8 27.32 8 28 8 C26.5661989 13.01830384 24.2101103 15.13712499 20 18 C17.9375 18.1875 17.9375 18.1875 16 17 C14.17458956 15.08516023 12.6147892 13.10819701 11 11 C7.18315774 12.55500981 4.80804268 15.03595495 2 18 C-2.29238623 16.34908222 -4.8793915 13.26245434 -8 10 C-7.67 9.01 -7.34 8.02 -7 7 C-6.34 7 -5.68 7 -5 7 C-4.731875 6.401875 -4.46375 5.80375 -4.1875 5.1875 C-3.01506533 3.02775192 -1.80630718 1.64209744 0 0 Z " fill="#00A7C1" transform="translate(618,91)"/>
<path d="M0 0 C1.9375 0.8125 1.9375 0.8125 4 2 C4.33 2.99 4.66 3.98 5 5 C5.66 5 6.32 5 7 5 C7 5.66 7 6.32 7 7 C7.66 7 8.32 7 9 7 C9 7.66 9 8.32 9 9 C9.78375 8.175 10.5675 7.35 11.375 6.5 C14 4 14 4 16 4 C16 3.34 16 2.68 16 2 C16.66 2 17.32 2 18 2 C18 1.34 18 0.68 18 0 C21.36179774 1.44077046 23.59156268 3.24750021 26 6 C26 6.66 26 7.32 26 8 C26.66 8 27.32 8 28 8 C28 8.99 28 9.98 28 11 C27.34 11 26.68 11 26 11 C25.67 11.99 25.34 12.98 25 14 C24.34 14 23.68 14 23 14 C23 14.66 23 15.32 23 16 C22.34 16 21.68 16 21 16 C20.67 16.99 20.34 17.98 20 19 C18.68 18.34 17.36 17.68 16 17 C16 16.34 16 15.68 16 15 C15.34 15 14.68 15 14 15 C12.62689293 13.70766393 11.28965176 12.37562854 10 11 C9.01 11.33 8.02 11.66 7 12 C7 12.66 7 13.32 7 14 C6.34 14 5.68 14 5 14 C4.731875 14.639375 4.46375 15.27875 4.1875 15.9375 C3 18 3 18 0 19 C-1.70884005 17.37660195 -3.37446717 15.70680947 -5 14 C-5 13.34 -5 12.68 -5 12 C-5.66 12 -6.32 12 -7 12 C-7.33 11.01 -7.66 10.02 -8 9 C-6.8553125 7.88625 -6.8553125 7.88625 -5.6875 6.75 C-3.5606298 4.5736677 -1.7440044 2.47832204 0 0 Z " fill="#00A7C1" transform="translate(34,111)"/>
<path d="M0 0 C1.32 0.66 2.64 1.32 4 2 C4 2.66 4 3.32 4 4 C4.99 4.33 5.98 4.66 7 5 C7 5.66 7 6.32 7 7 C7.66 7 8.32 7 9 7 C9.73828125 8.734375 9.73828125 8.734375 10 11 C8.41796875 13.140625 8.41796875 13.140625 6.1875 15.25 C5.45917969 15.95640625 4.73085938 16.6628125 3.98046875 17.390625 C2 19 2 19 0 19 C-1.625 17.625 -1.625 17.625 -3 16 C-3 15.34 -3 14.68 -3 14 C-3.66 14 -4.32 14 -5 14 C-6.625 12.5 -6.625 12.5 -8 11 C-6.63629701 8.00779732 -5.05091917 5.70973471 -2.875 3.25 C-2.33617187 2.63640625 -1.79734375 2.0228125 -1.2421875 1.390625 C-0.62730469 0.70226562 -0.62730469 0.70226562 0 0 Z " fill="#00A7C1" transform="translate(698,26)"/>
<path d="M0 0 C5.01830384 1.4338011 7.13712499 3.7898897 10 8 C9.68737112 11.24751229 8.43636717 13.01808616 6.1875 15.3125 C5.68605469 15.84488281 5.18460937 16.37726563 4.66796875 16.92578125 C3 18 3 18 1.0078125 17.84375 C-1.22643724 16.90484349 -2.58477364 15.88092907 -4.3125 14.1875 C-4.84488281 13.68605469 -5.37726563 13.18460938 -5.92578125 12.66796875 C-7 11 -7 11 -6.859375 9.03515625 C-5.86655932 6.68398821 -4.64634818 5.14064054 -2.9375 3.25 C-2.38964844 2.63640625 -1.84179688 2.0228125 -1.27734375 1.390625 C-0.85582031 0.93171875 -0.43429687 0.4728125 0 0 Z " fill="#FF9900" transform="translate(382,91)"/>
<path d="M0 0 C3.98882376 1.53416298 7.64783382 4.4247074 10 8 C9.84050386 10.62396867 9.22811893 11.74497473 7.4765625 13.703125 C6.86554688 14.21359375 6.25453125 14.7240625 5.625 15.25 C5.01914063 15.77078125 4.41328125 16.2915625 3.7890625 16.828125 C2 18 2 18 -1 18 C-2.859375 16.35546875 -2.859375 16.35546875 -4.75 14.1875 C-5.38421875 13.47980469 -6.0184375 12.77210937 -6.671875 12.04296875 C-7.11015625 11.36878906 -7.5484375 10.69460937 -8 10 C-7.67 9.01 -7.34 8.02 -7 7 C-6.34 7 -5.68 7 -5 7 C-4.731875 6.401875 -4.46375 5.80375 -4.1875 5.1875 C-3.01506533 3.02775192 -1.80630718 1.64209744 0 0 Z " fill="#00A7C1" transform="translate(142,91)"/>
<path d="M0 0 C1.76171875 1.609375 1.76171875 1.609375 3.6875 3.75 C4.33074219 4.44609375 4.97398437 5.1421875 5.63671875 5.859375 C7 8 7 8 6.9296875 10.03125 C5.78577428 12.45365447 4.38117257 13.91234594 2.4375 15.75 C1.79683594 16.36359375 1.15617188 16.9771875 0.49609375 17.609375 C0.00238281 18.06828125 -0.49132812 18.5271875 -1 19 C-2.12588014 18.04270084 -3.2506715 17.08412105 -4.375 16.125 C-5.00148438 15.59132813 -5.62796875 15.05765625 -6.2734375 14.5078125 C-7.55836651 13.38567993 -8.79371975 12.20628025 -10 11 C-9.69816344 7.43685626 -8.06173813 5.68169115 -5.5625 3.25 C-4.94503906 2.63640625 -4.32757812 2.0228125 -3.69140625 1.390625 C-2 0 -2 0 0 0 Z " fill="#00A7C1" transform="translate(536,27)"/>
<path d="M0 0 C1.859375 1.609375 1.859375 1.609375 3.75 3.75 C4.38421875 4.44609375 5.0184375 5.1421875 5.671875 5.859375 C7 8 7 8 6.92578125 10.03125 C5.78550604 12.45613905 4.38159754 13.91194415 2.4375 15.75 C1.79683594 16.36359375 1.15617188 16.9771875 0.49609375 17.609375 C0.00238281 18.06828125 -0.49132812 18.5271875 -1 19 C-2.12588014 18.04270084 -3.2506715 17.08412105 -4.375 16.125 C-5.00148438 15.59132813 -5.62796875 15.05765625 -6.2734375 14.5078125 C-7.55836651 13.38567993 -8.79371975 12.20628025 -10 11 C-9.65811291 7.69053295 -8.25693921 5.73195908 -6.125 3.25 C-5.61195313 2.63640625 -5.09890625 2.0228125 -4.5703125 1.390625 C-3 0 -3 0 0 0 Z " fill="#00A7C1" transform="translate(518,27)"/>
<path d="M0 0 C2.35739661 0.83592488 3.61481428 1.80639365 5.39453125 3.55078125 C5.92691406 4.05222656 6.45929688 4.55367187 7.0078125 5.0703125 C8.08203125 6.73828125 8.08203125 6.73828125 7.96484375 8.703125 C6.89343752 11.17304821 5.57111851 12.61376392 3.64453125 14.48828125 C3.02707031 15.101875 2.40960938 15.71546875 1.7734375 16.34765625 C0.08203125 17.73828125 0.08203125 17.73828125 -1.91796875 17.73828125 C-3.6796875 16.12890625 -3.6796875 16.12890625 -5.60546875 13.98828125 C-6.24871094 13.2921875 -6.89195312 12.59609375 -7.5546875 11.87890625 C-8.91796875 9.73828125 -8.91796875 9.73828125 -8.74609375 7.640625 C-7.12538968 3.91759253 -4.52158128 -0.61699785 0 0 Z " fill="#00A7C1" transform="translate(203.91796875,14.26171875)"/>
<path d="M0 0 C2.86697492 1.28519565 4.97607712 2.57129254 7 5 C7 5.66 7 6.32 7 7 C7.66 7 8.32 7 9 7 C9.33 7.99 9.66 8.98 10 10 C7.33333333 12.66666667 4.66666667 15.33333333 2 18 C-3.01113235 16.5682479 -4.94469549 14.01554307 -8 10 C-6.34908222 5.70761377 -3.26245434 3.1206085 0 0 Z " fill="#00A7C1" transform="translate(88,91)"/>
<path d="M0 0 C4.3124594 1.59720719 6.42143673 4.31633819 9 8 C8.69375591 11.24746337 7.4351299 13.01934849 5.1875 15.3125 C4.68605469 15.84488281 4.18460937 16.37726563 3.66796875 16.92578125 C2 18 2 18 -0.19921875 17.66796875 C-0.79347656 17.44753906 -1.38773437 17.22710937 -2 17 C-2 16.34 -2 15.68 -2 15 C-2.66 15 -3.32 15 -4 15 C-5.38232443 13.37373596 -6.71937515 11.7074998 -8 10 C-6.34908222 5.70761377 -3.26245434 3.1206085 0 0 Z " fill="#FF9900" transform="translate(365,91)"/>
<path d="M0 0 C2.625 0.5 2.625 0.5 5 2.6875 C6.625 5.5 6.625 5.5 6.4375 8.25 C5.625 10.5 5.625 10.5 4.625 11.5 C-0.90441176 11.73529412 -0.90441176 11.73529412 -3.375 10.5 C-4.125 7.125 -4.125 7.125 -4.375 3.5 C-2.375 0.5 -2.375 0.5 0 0 Z " fill="#00A7C1" transform="translate(644.375,163.5)"/>
<path d="M0 0 C1.9375 0.6875 1.9375 0.6875 3.9375 1.6875 C5.41732709 7.83447406 5.41732709 7.83447406 3.8125 10.6875 C1.9375 11.6875 1.9375 11.6875 -0.625 11.5 C-3.0625 10.6875 -3.0625 10.6875 -5.0625 8.6875 C-5.375 5.1875 -5.375 5.1875 -5.0625 1.6875 C-2.0625 -0.3125 -2.0625 -0.3125 0 0 Z " fill="#00A7C1" transform="translate(37.0625,147.3125)"/>
</svg>
